<svg fill="#ae54de" version="1.1" id="Capa_1" xmlns="http://www.w3.org/2000/svg" xmlns:xlink="http://www.w3.org/1999/xlink" width="220px" height="220px" viewBox="-4.64 -4.64 55.70 55.70" xml:space="preserve" stroke="#ae54de"><g id="SVGRepo_bgCarrier" stroke-width="0"></g><g id="SVGRepo_tracerCarrier" stroke-linecap="round" stroke-linejoin="round"></g><g id="SVGRepo_iconCarrier"> <g> <g> <path d="M44.25,24.427c1.931-1.761,2.656-4.504,1.85-6.99c-0.808-2.485-3.007-4.278-5.604-4.568l-7.169-0.799 c-0.462-0.052-0.868-0.347-1.062-0.771l-2.977-6.572c-1.077-2.38-3.462-3.918-6.075-3.919c-2.614,0-4.999,1.538-6.076,3.918 L14.159,11.3c-0.192,0.424-0.599,0.719-1.061,0.771L5.93,12.87c-2.597,0.29-4.797,2.083-5.605,4.568 c-0.807,2.485-0.081,5.229,1.85,6.989l5.33,4.861c0.345,0.312,0.5,0.791,0.406,1.246l-1.455,7.066 c-0.527,2.559,0.498,5.205,2.611,6.741c1.147,0.833,2.503,1.274,3.922,1.274c1.154,0,2.295-0.303,3.298-0.873l6.27-3.567 c0.4-0.228,0.913-0.228,1.312,0l6.269,3.567c2.239,1.272,5.143,1.108,7.22-0.402c2.114-1.536,3.141-4.182,2.612-6.742 l-1.456-7.064c-0.094-0.455,0.062-0.934,0.406-1.248L44.25,24.427z M36.896,27.07c-1.122,1.023-1.629,2.584-1.321,4.07 l1.456,7.064c0.289,1.408-0.275,2.865-1.438,3.709c-1.144,0.832-2.741,0.922-3.972,0.222l-6.271-3.567 c-1.301-0.74-2.976-0.74-4.278,0l-6.271,3.567c-1.23,0.701-2.829,0.61-3.972-0.222c-1.163-0.844-1.727-2.301-1.438-3.709 l1.455-7.065c0.307-1.487-0.2-3.047-1.322-4.069l-5.33-4.861c-1.063-0.969-1.462-2.478-1.018-3.845 c0.444-1.368,1.655-2.354,3.084-2.514l7.168-0.799c1.509-0.168,2.835-1.131,3.461-2.514l2.978-6.574 c0.593-1.31,1.905-2.156,3.344-2.156c1.438,0,2.75,0.847,3.343,2.156l2.978,6.572c0.626,1.383,1.952,2.347,3.461,2.515 l7.169,0.799c1.43,0.16,2.64,1.146,3.084,2.514c0.443,1.368,0.045,2.877-1.019,3.846L36.896,27.07z"></path> <path d="M39.5,17.628l-8.039-0.896c-1.279-0.143-2.404-0.96-2.938-2.133L25.187,7.23c-0.345-0.761-1.107-1.252-1.942-1.252 s-1.598,0.491-1.942,1.253l-3.336,7.368c-0.531,1.173-1.656,1.991-2.937,2.134l-8.037,0.896C6.164,17.721,5.46,18.294,5.2,19.093 c-0.256,0.793-0.023,1.669,0.593,2.231l5.976,5.45c0.952,0.868,1.382,2.19,1.122,3.452l-1.631,7.918 c-0.171,0.821,0.157,1.669,0.835,2.159c0.664,0.483,1.595,0.535,2.308,0.128l7.028-4c1.104-0.628,2.524-0.628,3.63,0l7.032,4 c0.321,0.182,0.687,0.277,1.054,0.277c0.454,0,0.889-0.141,1.255-0.407c0.678-0.492,1.005-1.34,0.834-2.155l-1.634-7.921 c-0.261-1.262,0.169-2.585,1.122-3.453l5.978-5.448c0.616-0.562,0.85-1.438,0.592-2.238C41.033,18.292,40.329,17.72,39.5,17.628z M32.702,24.555c-1.731,1.578-2.513,3.983-2.038,6.276l1.245,6.043l-5.365-3.051c-1.004-0.571-2.146-0.873-3.299-0.873 s-2.295,0.301-3.299,0.873l-5.362,3.051l1.244-6.045c0.473-2.291-0.309-4.695-2.038-6.273l-4.56-4.159l6.132-0.684 c2.327-0.259,4.372-1.746,5.337-3.878l2.546-5.623l2.547,5.624c0.967,2.132,3.012,3.618,5.337,3.876l6.135,0.684L32.702,24.555z"></path> </g> </g> </g></svg>
